<!-- Fallback SVG Icons for FrameX -->
<svg xmlns="http://www.w3.org/2000/svg" style="display: none;">
  <!-- Default Square Icon -->
  <symbol id="icon-default" viewBox="0 0 24 24">
    <rect x="3" y="3" width="18" height="18" stroke="currentColor" stroke-width="2" fill="none"/>
  </symbol>
  
  <!-- Home Icon -->
  <symbol id="icon-home" viewBox="0 0 24 24">
    <path d="M3 12l2-2m0 0l7-7 7 7M5 10v10a1 1 0 001 1h3m10-11l2 2m-2-2v10a1 1 0 01-1 1h-3m-6 0a1 1 0 001-1v-4a1 1 0 011-1h2a1 1 0 011 1v4a1 1 0 001 1m-6 0h6" stroke="currentColor" stroke-width="2" fill="none" stroke-linecap="round" stroke-linejoin="round"/>
  </symbol>
  
  <!-- Building Icon -->
  <symbol id="icon-building" viewBox="0 0 24 24">
    <path d="M19 21V5a2 2 0 00-2-2H7a2 2 0 00-2 2v16m14 0h2m-2 0h-5m-9 0H3m2 0h5M9 7h1m-1 4h1m4-4h1m-1 4h1m-5 10v-5a1 1 0 011-1h2a1 1 0 011 1v5m-4 0h4" stroke="currentColor" stroke-width="2" fill="none" stroke-linecap="round" stroke-linejoin="round"/>
  </symbol>
  
  <!-- Phone Icon -->
  <symbol id="icon-phone" viewBox="0 0 24 24">
    <path d="M3 5a2 2 0 012-2h3.28a1 1 0 01.948.684l1.498 4.493a1 1 0 01-.502 1.21l-2.257 1.13a11.042 11.042 0 005.516 5.516l1.13-2.257a1 1 0 011.21-.502l4.493 1.498a1 1 0 01.684.949V19a2 2 0 01-2 2h-1C9.716 21 3 14.284 3 6V5z" stroke="currentColor" stroke-width="2" fill="none" stroke-linecap="round" stroke-linejoin="round"/>
  </symbol>
  
  <!-- Email Icon -->
  <symbol id="icon-email" viewBox="0 0 24 24">
    <path d="M3 8l7.89 5.26a2 2 0 002.22 0L21 8M5 19h14a2 2 0 002-2V7a2 2 0 00-2-2H5a2 2 0 00-2 2v10a2 2 0 002 2z" stroke="currentColor" stroke-width="2" fill="none" stroke-linecap="round" stroke-linejoin="round"/>
  </symbol>
  
  <!-- Check Icon -->
  <symbol id="icon-check" viewBox="0 0 24 24">
    <path d="M5 13l4 4L19 7" stroke="currentColor" stroke-width="2" fill="none" stroke-linecap="round" stroke-linejoin="round"/>
  </symbol>
</svg>